<svg width="512" height="512" viewBox="0 0 512 512" fill="none" xmlns="http://www.w3.org/2000/svg">
<rect width="512" height="512" fill="url(#paint0_linear)"/>
<g filter="url(#filter0_d)">
<path d="M158.04 361.48C141.8 361.48 125.933 359.707 110.44 356.16C95.1333 352.427 82.5333 347.48 72.64 341.32L93.92 293.16C103.253 298.573 113.707 302.96 125.28 306.32C136.853 309.493 147.96 311.08 158.6 311.08C167.747 311.08 174.28 310.24 178.2 308.56C182.12 306.693 184.08 303.987 184.08 300.44C184.08 296.333 181.467 293.253 176.24 291.2C171.2 289.147 162.8 286.907 151.04 284.48C135.92 281.307 123.32 277.947 113.24 274.4C103.16 270.667 94.3867 264.693 86.92 256.48C79.4533 248.08 75.72 236.787 75.72 222.6C75.72 210.28 79.1733 199.08 86.08 189C92.9867 178.92 103.253 170.987 116.88 165.2C130.693 159.413 147.4 156.52 167 156.52C180.44 156.52 193.6 158.013 206.48 161C219.547 163.8 231.027 168 240.92 173.6L221.04 221.48C201.813 211.773 183.613 206.92 166.44 206.92C149.453 206.92 140.96 211.027 140.96 219.24C140.96 223.16 143.48 226.147 148.52 228.2C153.56 230.067 161.867 232.12 173.44 234.36C188.373 237.16 200.973 240.427 211.24 244.16C221.507 247.707 230.373 253.587 237.84 261.8C245.493 270.013 249.32 281.213 249.32 295.4C249.32 307.72 245.867 318.92 238.96 329C232.053 338.893 221.693 346.827 207.88 352.8C194.253 358.587 177.64 361.48 158.04 361.48ZM431.943 307.16V357H268.983V161H428.303V210.84H333.943V233.8H416.823V281.4H333.943V307.16H431.943Z" fill="white"/>
</g>
<defs>
<filter id="filter0_d" x="72.6399" y="156.52" width="375.303" height="220.96" filterUnits="userSpaceOnUse" color-interpolation-filters="sRGB">
<feFlood flood-opacity="0" result="BackgroundImageFix"/>
<feColorMatrix in="SourceAlpha" type="matrix" values="0 0 0 0 0 0 0 0 0 0 0 0 0 0 0 0 0 0 127 0"/>
<feOffset dx="8" dy="8"/>
<feGaussianBlur stdDeviation="4"/>
<feColorMatrix type="matrix" values="0 0 0 0 0.223529 0 0 0 0 0.560784 0 0 0 0 0.407843 0 0 0 1 0"/>
<feBlend mode="normal" in2="BackgroundImageFix" result="effect1_dropShadow"/>
<feBlend mode="normal" in="SourceGraphic" in2="effect1_dropShadow" result="shape"/>
</filter>
<linearGradient id="paint0_linear" x1="0" y1="0" x2="512" y2="512" gradientUnits="userSpaceOnUse">
<stop stop-color="#4EA528"/>
<stop offset="1" stop-color="#4EA528"/>
</linearGradient>
</defs>
</svg>
