<svg width="512" height="512" viewBox="0 0 512 512" fill="none" xmlns="http://www.w3.org/2000/svg">
<circle cx="256" cy="256" r="256" fill="#4FA528"/>
<path d="M172.32 346.84C158.4 346.84 144.8 345.32 131.52 342.28C118.4 339.08 107.6 334.84 99.12 329.56L117.36 288.28C125.36 292.92 134.32 296.68 144.24 299.56C154.16 302.28 163.68 303.64 172.8 303.64C180.64 303.64 186.24 302.92 189.6 301.48C192.96 299.88 194.64 297.56 194.64 294.52C194.64 291 192.4 288.36 187.92 286.6C183.6 284.84 176.4 282.92 166.32 280.84C153.36 278.12 142.56 275.24 133.92 272.2C125.28 269 117.76 263.88 111.36 256.84C104.96 249.64 101.76 239.96 101.76 227.8C101.76 217.24 104.72 207.64 110.64 199C116.56 190.36 125.36 183.56 137.04 178.6C148.88 173.64 163.2 171.16 180 171.16C191.52 171.16 202.8 172.44 213.84 175C225.04 177.4 234.88 181 243.36 185.8L226.32 226.84C209.84 218.52 194.24 214.36 179.52 214.36C164.96 214.36 157.68 217.88 157.68 224.92C157.68 228.28 159.84 230.84 164.16 232.6C168.48 234.2 175.6 235.96 185.52 237.88C198.32 240.28 209.12 243.08 217.92 246.28C226.72 249.32 234.32 254.36 240.72 261.4C247.28 268.44 250.56 278.04 250.56 290.2C250.56 300.76 247.6 310.36 241.68 319C235.76 327.48 226.88 334.28 215.04 339.4C203.36 344.36 189.12 346.84 172.32 346.84ZM407.094 300.28V343H267.414V175H403.974V217.72H323.094V237.4H394.134V278.2H323.094V300.28H407.094Z" fill="white"/>
</svg>
